<?xml version="1.0" encoding="UTF-8"?>
<svg version="1.1" xmlns="http://www.w3.org/2000/svg" width="512" height="512">
<path d="M0 0 C2.81047932 1.37485407 5.29057247 2.83360251 7.80859375 4.6953125 C8.54464844 5.23800781 9.28070313 5.78070313 10.0390625 6.33984375 C10.83054687 6.92894531 11.62203125 7.51804688 12.4375 8.125 C13.27152344 8.74246094 14.10554687 9.35992187 14.96484375 9.99609375 C22.07881246 15.27863897 29.12342138 20.65058169 36.15991211 26.03564453 C41.89604575 30.41865249 47.67614956 34.73437041 53.5 39 C61.12740017 44.5866242 68.65644565 50.29276338 76.1640625 56.0390625 C81.89902727 60.42064326 87.67759563 64.73542958 93.5 69 C101.12740017 74.5866242 108.65644565 80.29276338 116.1640625 86.0390625 C121.89902727 90.42064326 127.67759563 94.73542958 133.5 99 C141.12740017 104.5866242 148.65644565 110.29276338 156.1640625 116.0390625 C162.66543563 121.00618828 169.23255271 125.87541965 175.83374023 130.70874023 C181.79961021 135.08784375 187.68800149 139.56181125 193.5625 144.0625 C225.28112057 169.06339332 225.28112057 169.06339332 264.3125 174.4375 C278.84348631 172.16888683 289.56114545 165.8504208 301 157 C302.62530186 155.76170691 304.25167299 154.52481646 305.87890625 153.2890625 C308.55846898 151.25203523 311.23615658 149.2127458 313.90869141 147.16650391 C319.72641922 142.71287551 325.58836421 138.32803998 331.5 134 C338.22508218 129.07450846 344.88053292 124.06651293 351.5 119 C358.88641792 113.34646605 366.33194466 107.78529806 373.8359375 102.2890625 C379.77671433 97.92722968 385.6475326 93.47945452 391.5 89 C398.88641792 83.34646605 406.33194466 77.78529806 413.8359375 72.2890625 C419.77671433 67.92722968 425.6475326 63.47945452 431.5 59 C438.88641792 53.34646605 446.33194466 47.78529806 453.8359375 42.2890625 C460.66933369 37.27185134 467.40646916 32.1338017 474.13769531 26.98071289 C480.87418817 21.83321626 487.67396046 16.77804821 494.52148438 11.77929688 C499.15191495 8.39249134 503.67848988 4.90789548 508.14355469 1.30493164 C510 0 510 0 512 0 C512.09353981 28.4598854 512.16402654 56.91974768 512.20724869 85.37975597 C512.22785302 98.59493849 512.25593303 111.81002537 512.30175781 125.02514648 C512.34169062 136.54663147 512.36744828 148.06804716 512.37635398 159.58959943 C512.38155777 165.68728899 512.39374444 171.78478035 512.42292023 177.88240623 C512.45019099 183.62877173 512.45842142 189.37485851 512.45243073 195.12128258 C512.45352575 197.22344989 512.46140967 199.3256271 512.4768219 201.42773819 C512.61819224 221.71492457 508.68255957 238.60428074 494.32983398 253.88720703 C482.23625587 266.09361751 466.43295112 272.15736625 449.47337328 272.26828943 C447.17724515 272.2723076 444.88125137 272.26657415 442.58512878 272.26069641 C440.91124292 272.26371949 439.23735844 272.26760975 437.56347638 272.27228898 C432.977915 272.28255767 428.39243191 272.28039002 423.80686414 272.27610838 C418.85581775 272.2736391 413.90479011 272.28265786 408.95375061 272.29014587 C399.25938875 272.30288945 389.5650546 272.30468697 379.87068578 272.30234561 C371.98961148 272.30056185 364.10854559 272.30231335 356.22747231 272.30657005 C355.10535973 272.30716524 353.98324715 272.30776043 352.82713116 272.30837366 C350.54747174 272.30958542 348.26781232 272.31079956 345.9881529 272.31201603 C324.61340012 272.32289034 303.23866313 272.32072964 281.86390946 272.31463119 C262.31779251 272.30946261 242.77172541 272.32071611 223.22561833 272.33972941 C203.1472104 272.35911049 183.06882606 272.3673633 162.99040872 272.36360615 C151.72132846 272.36169446 140.45229062 272.36417856 129.183218 272.37832069 C119.58927698 272.39023892 109.99540449 272.39163442 100.40146252 272.37953053 C95.50885001 272.37364487 90.61636283 272.37253379 85.7237587 272.38453293 C81.23983497 272.39540175 76.75614106 272.39227646 72.27222804 272.37827124 C70.65520149 272.37562707 69.03815688 272.37798203 67.42114808 272.38600711 C48.26739758 272.47442343 32.11389705 267.620739 18.01147461 254.27929688 C7.3818528 243.63324597 -0.18097232 228.3731522 -0.25816262 213.20926428 C-0.24942409 211.96020544 -0.24942409 211.96020544 -0.24050903 210.68591309 C-0.24221788 209.78069617 -0.24392673 208.87547925 -0.24568737 207.94283152 C-0.2489663 204.92730043 -0.23800493 201.91199476 -0.22705078 198.89648438 C-0.22648632 196.72784429 -0.2268039 194.55920383 -0.22793579 192.39056396 C-0.22850895 186.5151584 -0.21676052 180.63983472 -0.20278788 174.76444817 C-0.19027444 168.61986584 -0.18910953 162.47528158 -0.18673706 156.33068848 C-0.18052411 144.70033316 -0.16411575 133.0700155 -0.14403808 121.43967676 C-0.12167337 108.1967013 -0.1106842 94.95372402 -0.10064721 81.71073437 C-0.07974939 54.47380205 -0.04457696 27.23690313 0 0 Z " fill="#D5C4A1" transform="translate(0,176)"/>
<path d="M0 0 C1.79849458 -0.00417658 3.59698652 -0.00965587 5.3954736 -0.01631981 C10.32085174 -0.03075059 15.2460622 -0.02653707 20.17144942 -0.019153 C25.48990552 -0.01441778 30.80832553 -0.02693432 36.12677002 -0.03717041 C46.5395664 -0.0543568 56.95230243 -0.05519874 67.36510931 -0.04995751 C75.8296869 -0.04591427 84.29424666 -0.0473612 92.75882339 -0.05270576 C93.96406132 -0.05345419 95.16929925 -0.05420261 96.41105954 -0.05497371 C98.85958743 -0.0565052 101.30811531 -0.05804355 103.75664319 -0.05958868 C126.71278425 -0.07331315 149.66889121 -0.0678764 172.62503149 -0.05640347 C193.61960079 -0.04647123 214.61408196 -0.05941173 235.60863768 -0.08333766 C257.17417803 -0.10772884 278.73967734 -0.11733647 300.30523121 -0.11068493 C312.40932282 -0.10719275 324.51334665 -0.10942476 336.61742783 -0.12693596 C346.9213587 -0.14165813 357.22517406 -0.14229309 367.52910267 -0.12486505 C372.78427263 -0.11635288 378.03923625 -0.11421097 383.29439545 -0.1295166 C388.10955986 -0.14336693 392.92434121 -0.13859592 397.73948349 -0.11927737 C399.47693595 -0.11551814 401.21441911 -0.11843708 402.9518442 -0.12888902 C419.53234718 -0.22150315 431.70268551 3.22038214 444.07595825 14.70018005 C454.06886863 25.25872687 456.84035607 36.80595929 456.74563599 50.91795349 C456.32758138 65.29042904 450.39821931 75.64786986 440.28713989 85.59593201 C436.96718581 88.62906321 433.35659694 91.21488801 429.70095825 93.82518005 C428.00969402 95.05144627 426.31963377 96.27937436 424.63064575 97.5087738 C423.75891724 98.14283142 422.88718872 98.77688904 421.98904419 99.43016052 C417.55538226 102.68915405 413.19235485 106.03940764 408.82595825 109.38768005 C401.44010778 115.04194235 393.99399797 120.60239344 386.49002075 126.09861755 C380.54924392 130.46045038 374.67842565 134.90822554 368.82595825 139.38768005 C361.43954034 145.041214 353.99401359 150.60238199 346.49002075 156.09861755 C340.54924392 160.46045038 334.67842565 164.90822554 328.82595825 169.38768005 C321.43954034 175.041214 313.99401359 180.60238199 306.49002075 186.09861755 C300.54924392 190.46045038 294.67842565 194.90822554 288.82595825 199.38768005 C281.43954034 205.041214 273.99401359 210.60238199 266.49002075 216.09861755 C260.54922836 220.4604618 254.67896545 224.90891319 248.82595825 229.38768005 C241.91131488 234.66830256 234.98836454 239.93680207 228.01345825 245.13768005 C227.2554895 245.7100238 226.49752075 246.28236755 225.71658325 246.87205505 C217.78960233 252.75017281 210.77905874 256.56042749 200.76345825 256.70018005 C200.09765747 256.72918396 199.43185669 256.75818787 198.74588013 256.78807068 C188.81272895 256.91116979 181.30881646 252.15043357 173.88845825 246.01268005 C172.31471396 244.75004591 170.73913441 243.48969643 169.16189575 242.23143005 C167.96258423 241.27043396 167.96258423 241.27043396 166.73904419 240.2900238 C162.90247691 237.26548594 158.96154445 234.38918405 155.01345825 231.51268005 C148.22343241 226.5483965 141.50444837 221.50100451 134.82595825 216.38768005 C128.20657551 211.32105196 121.55092618 206.31332546 114.82595825 201.38768005 C107.19855808 195.80105585 99.6695126 190.09491667 92.16189575 184.34861755 C86.42693098 179.9670368 80.64836262 175.65225048 74.82595825 171.38768005 C67.19855808 165.80105585 59.6695126 160.09491667 52.16189575 154.34861755 C46.42693098 149.9670368 40.64836262 145.65225048 34.82595825 141.38768005 C27.19855808 135.80105585 19.6695126 130.09491667 12.16189575 124.34861755 C6.42692131 119.96702941 0.64806062 115.65267311 -5.17404175 111.38768005 C-12.11308344 106.29826781 -19.00623908 101.15191816 -25.86154175 95.95018005 C-26.7226355 95.29984802 -27.58372925 94.64951599 -28.47091675 93.97947693 C-41.3234861 84.19422655 -52.05663699 74.80050195 -55.67404175 58.38768005 C-57.14136071 40.98224131 -54.43481572 27.9670888 -43.01779175 14.4228363 C-31.0191132 1.49029834 -16.67063393 -0.06303999 0 0 Z " fill="#D5C4A1" transform="translate(55.674041748046875,63.61231994628906)"/>
</svg>
