<?xml version="1.0" encoding="UTF-8"?>
<svg version="1.1" xmlns="http://www.w3.org/2000/svg" width="448" height="512">
<path d="M0 0 C11.60268574 7.10336769 21.30735401 19.37708124 30.8586216 28.91448879 C32.76473076 30.81432457 34.67102015 32.71397813 36.57749367 34.61344814 C42.26899232 40.28532574 47.95577243 45.96192257 53.64192861 51.6391553 C55.7868894 53.78059998 57.93216452 55.92172961 60.07745599 58.06284301 C69.54577 67.51271829 79.01274198 76.96393563 88.47569275 86.41918182 C90.78333916 88.72491872 93.09099101 91.03065016 95.39866066 93.33636379 C95.97213567 93.90935506 96.54561068 94.48234633 97.13646372 95.07270097 C106.44454454 104.37246574 115.76112323 113.66366871 125.08124356 122.95136601 C134.66705627 132.50410405 144.24531893 142.06435957 153.81620657 151.63205141 C159.18348717 156.99716918 164.55399824 162.35896272 169.93297386 167.71235752 C174.50828702 172.26595961 179.07670814 176.82633709 183.63631646 181.3956669 C185.96092613 183.72481771 188.28969116 186.04952248 190.6251812 188.3677702 C193.15932232 190.88424482 195.6808104 193.4127625 198.19953346 195.94465542 C198.93590487 196.67005758 199.67227628 197.39545974 200.43096197 198.14284378 C208.10798463 205.91708906 211.30037977 213.37127586 211.28855324 224.38177395 C210.89103403 242.50039551 191.42199874 255.92685065 179.56614113 267.80023098 C177.69748427 269.6751615 175.82900955 271.55027213 173.96071815 273.42556667 C168.38227233 279.02363175 162.79910916 284.6169802 157.2153089 290.20970371 C155.10865389 292.3198753 153.00231366 294.43036094 150.89598951 296.54086277 C141.59804937 305.85724249 132.29876628 315.17227929 122.99545479 324.48329544 C120.72685237 326.75380735 118.45825542 329.02432471 116.18967628 331.29485989 C115.62591917 331.85910074 115.06216206 332.42334159 114.48132139 333.00468066 C105.33419409 342.16012161 96.19562822 351.32405893 87.06057316 360.49154369 C77.66264907 369.92255662 68.25719426 379.34600572 58.84430838 388.76208609 C53.5669072 394.04164889 48.29282271 399.32443299 43.02715492 404.61570072 C38.54751847 409.11706773 34.06108336 413.61151745 29.565714 418.09717486 C27.27492129 420.38343195 24.98855925 422.6738246 22.7086792 424.97097111 C20.23198262 427.46537022 17.74320183 429.94706759 15.25107765 432.4260397 C14.54026118 433.14782542 13.8294447 433.86961114 13.09708834 434.61326915 C4.94483526 442.66229979 -2.65389483 446.51340129 -14.18800926 446.52581692 C-28.01664764 446.24515883 -36.17191153 436.21044049 -45.35982323 427.02021694 C-46.16012907 426.22358778 -46.96043492 425.42695863 -47.78499246 424.60618919 C-50.44798099 421.9541547 -53.10743887 419.29860917 -55.76686668 416.64300442 C-57.68226937 414.73334746 -59.59837777 412.82439907 -61.51441002 410.9153738 C-67.24532541 405.20411883 -72.97148659 399.48810891 -78.69703615 393.77147546 C-81.397892 391.07501467 -84.09923142 388.37903841 -86.80050468 385.6829958 C-95.78440033 376.71609262 -104.76704791 367.74794195 -113.7460804 358.77616882 C-116.0702197 356.45393914 -118.39436439 354.13171484 -120.71852684 351.80950832 C-121.29612347 351.23239544 -121.87372009 350.65528255 -122.46881965 350.0606814 C-131.83845722 340.69935523 -141.21658953 331.34658741 -150.59827694 321.9973389 C-160.24278731 312.38590386 -169.87974719 302.76695072 -179.50933194 293.14056152 C-184.91129504 287.74076173 -190.31649188 282.34428883 -195.73014641 276.95620823 C-200.33661673 272.37145029 -204.93619387 267.77991502 -209.52695885 263.179429 C-211.86775624 260.83409018 -214.21271083 258.49319724 -216.56438828 256.15876102 C-219.11615147 253.62466333 -221.65526489 251.07852168 -224.19161034 248.529006 C-225.30405023 247.43301998 -225.30405023 247.43301998 -226.43896365 246.31489283 C-234.1332143 238.52387501 -237.34390863 231.07877248 -237.33205223 220.04046535 C-236.97473278 203.75411799 -222.04668538 193.08150948 -211.31349754 182.3099966 C-210.05742221 181.04600046 -208.80152205 179.78183021 -207.54578209 178.51750088 C-203.46202107 174.40780123 -199.37305659 170.30330057 -195.28346825 166.1994009 C-193.87041065 164.78097655 -192.45735844 163.36254683 -191.04431152 161.94411182 C-185.17253327 156.05076801 -179.29934432 150.15883614 -173.4224329 144.27061081 C-165.0151137 135.84699176 -156.61645647 127.41493912 -148.22938317 118.97116023 C-142.3177338 113.02090665 -136.39662049 107.08017845 -130.46828872 101.14654607 C-126.9308397 97.60543758 -123.39772857 94.06023646 -119.87466049 90.5048151 C-116.57021597 87.17044925 -113.25427289 83.84797789 -109.92892456 80.53446293 C-108.70872225 79.31448252 -107.49282244 78.09018197 -106.28149986 76.86138439 C-104.63277719 75.19016967 -102.96953817 73.53493283 -101.30158043 71.88294888 C-100.37304095 70.95109925 -99.44450148 70.01924963 -98.48782444 69.05916214 C-96.0217495 67.21111965 -96.0217495 67.21111965 -93.83892918 67.29997635 C-91.12174914 68.66238449 -89.22580875 70.54226544 -87.03786278 72.64813137 C-86.55614113 73.10853313 -86.07441948 73.5689349 -85.5781002 74.04328823 C-83.99045384 75.56681442 -82.4150858 77.10219446 -80.842062 78.64080715 C-80.30263844 79.16675598 -79.76321487 79.69270481 -79.20744514 80.23459148 C-76.35408704 83.01958477 -73.51101097 85.8146486 -70.67506981 88.61736965 C-67.74909439 91.50456354 -64.78769929 94.35237632 -61.81665802 97.1930666 C-59.53359292 99.3900378 -57.27996517 101.6155067 -55.03315926 103.84949017 C-53.9539568 104.91227179 -52.86379266 105.96404429 -51.76262856 107.00405407 C-43.15354991 115.16299877 -43.15354991 115.16299877 -42.82466698 120.27369595 C-43.32827165 123.0595225 -44.07692401 125.5487857 -45.0217495 128.21111965 C-45.53734007 137.22321325 -43.02874788 144.74378586 -38.0217495 152.21111965 C-34.87988633 155.6720783 -31.63957786 158.41574879 -27.43640518 160.48214912 C-25.0217495 162.21111965 -25.0217495 162.21111965 -24.38137054 164.51567459 C-24.37429014 165.42690928 -24.36720974 166.33814398 -24.35991478 167.27699184 C-24.33009514 168.84782528 -24.33009514 168.84782528 -24.29967308 170.45039272 C-24.30351006 171.59902294 -24.30734703 172.74765316 -24.31130028 173.93109035 C-24.29611351 175.141087 -24.28092674 176.35108364 -24.26527977 177.59774685 C-24.23010225 180.9186071 -24.21777823 184.23790656 -24.21839571 187.55884862 C-24.21661579 190.33212518 -24.20069593 193.10525387 -24.185274 195.87848252 C-24.14974022 202.42361549 -24.14199049 208.96839811 -24.15016747 215.51360989 C-24.15800446 222.26082736 -24.1140818 229.00634 -24.04536641 235.75317413 C-23.98846893 241.54870145 -23.96643248 247.34367734 -23.97160137 253.13948029 C-23.97417685 256.59986076 -23.96306132 260.05883581 -23.91735268 263.51894474 C-23.86788659 267.38095962 -23.89097325 271.2407091 -23.92067528 275.10296535 C-23.89617302 276.24552288 -23.87167076 277.38808041 -23.84642601 278.56526089 C-23.98703364 286.13943118 -23.98703364 286.13943118 -27.02864265 289.2897234 C-32.72307461 293.21111965 -32.72307461 293.21111965 -36.0217495 293.21111965 C-36.3929995 294.01549465 -36.3929995 294.01549465 -36.7717495 294.83611965 C-38.0217495 297.21111965 -38.0217495 297.21111965 -39.9592495 299.77361965 C-44.78444759 306.91202133 -46.11843944 316.23366548 -44.58815575 324.5744009 C-42.35297923 333.5012239 -37.85202484 340.81379519 -29.9592495 345.71111965 C-21.24185283 350.57138619 -11.90429156 351.9340835 -2.13503075 349.4884634 C7.0106646 346.02906562 13.32976001 341.09764545 17.9157505 332.4415884 C21.57994748 324.07383089 22.15231201 314.1392447 19.04465675 305.55486965 C15.77860996 298.19199974 15.77860996 298.19199974 9.84171581 293.10436726 C6.20371819 291.18402276 3.4788549 289.73961497 2.15622711 285.70123577 C1.8684409 282.51539784 1.86483716 279.43674913 1.95652199 276.23895168 C1.95520775 275.03838634 1.95389351 273.83782101 1.95253944 272.6008749 C1.95772369 269.32101482 2.0027329 266.0446444 2.06570506 262.76547766 C2.12210294 259.33433625 2.12726396 255.90312057 2.13793373 252.47158718 C2.16586845 245.97938287 2.23966671 239.48854827 2.33007914 232.99694622 C2.43079994 225.60415511 2.48019029 218.21129734 2.52533805 210.81799054 C2.61932316 195.61493803 2.77754616 180.41316604 2.9782505 165.21111965 C6.35570094 166.81669221 8.69469735 168.61833212 11.41135597 171.21087551 C12.27840157 172.03611217 13.14544716 172.86134884 14.03876686 173.71159267 C17.95992442 177.50379872 21.86987028 181.30678506 25.76145363 185.12933254 C27.8166022 187.14435644 29.88840987 189.13952592 31.97727394 191.11956692 C34.50737984 193.51810502 37.00379874 195.94734218 39.47993279 198.40152073 C40.88269192 199.77622228 42.31689873 201.11859686 43.75141335 202.46012783 C49.91525067 208.66374389 49.91525067 208.66374389 50.09916115 213.18087673 C49.59542954 215.96888765 48.86353902 218.5243368 47.9782505 221.21111965 C47.2041228 230.03617544 50.07715113 237.97949336 55.18528175 245.1056509 C61.47089656 252.4867977 68.72242408 256.6298582 78.34153175 257.52361965 C85.81883173 257.78062674 91.58493897 257.18066124 97.9782505 253.21111965 C98.67563332 252.78701809 99.37301613 252.36291653 100.09153175 251.9259634 C106.47889636 247.60757566 110.37020087 242.01196424 113.3532505 234.96111965 C115.31070924 223.21636724 113.99942601 213.84660529 107.2907505 203.96111965 C102.45947711 197.90363474 95.33707013 193.26276514 87.689188 191.7619009 C83.08158223 191.29189429 79.40952152 191.32928283 74.88157082 192.33782864 C71.06456227 192.69612852 69.41095513 192.47584102 66.10703468 190.45455837 C62.9538743 187.72720842 60.04357045 184.86778929 57.1501255 181.8712759 C56.06682933 180.7884452 54.98152709 179.70761807 53.89432716 178.62870693 C51.62941495 176.36793538 49.38673572 174.08779665 47.15842628 171.79095364 C44.30529462 168.85250019 41.40765691 165.9632901 38.49260521 163.08640289 C36.24844709 160.86313592 34.02698209 158.61826602 31.81196785 156.36599445 C30.75125707 155.29176983 29.68426353 154.22371055 28.61090279 153.16212559 C20.26044971 144.86055037 20.26044971 144.86055037 19.56569862 140.79978848 C19.82370949 138.63787746 19.82370949 138.63787746 20.9782505 135.21111965 C21.87919182 126.27555412 19.3602001 118.29803911 14.2907505 110.89861965 C8.51441754 103.83383146 0.86147215 99.91001779 -8.0217495 98.21111965 C-12.13043841 97.8040202 -15.85919304 98.17766598 -19.91457176 99.01225185 C-23.30749425 99.4340089 -23.84360357 99.32273942 -26.91994286 97.39521694 C-27.80818748 96.48698681 -28.69643211 95.57875668 -29.61159325 94.64300442 C-30.35949371 93.89707531 -30.35949371 93.89707531 -31.12250328 93.13607693 C-32.75701059 91.49532412 -34.35736875 89.82509456 -35.9592495 88.1525259 C-37.08926936 87.00571082 -38.22129972 85.86087361 -39.35524559 84.71794033 C-42.32811032 81.71078392 -45.27295764 78.67759139 -48.2127285 75.6381216 C-51.2198145 72.53881114 -54.25268291 69.46496151 -57.28346825 66.38885403 C-63.22172644 60.35419984 -69.13062126 54.29178979 -75.0217495 48.21111965 C-73.57898916 44.91723258 -71.78737254 42.71452814 -69.26564598 40.16448879 C-68.49401619 39.3800993 -67.7223864 38.5957098 -66.92737389 37.78755093 C-65.67278122 36.52961979 -65.67278122 36.52961979 -64.39284325 35.2462759 C-63.09734299 33.94079044 -63.09734299 33.94079044 -61.77567101 32.60893154 C-59.94490383 30.76803795 -58.11140955 28.92985306 -56.27541161 27.09417629 C-53.48381304 24.29822153 -50.70857553 21.48670635 -47.93385887 18.67401028 C-46.1503377 16.88461748 -44.36586238 15.09617508 -42.58034325 13.3087759 C-41.75811775 12.47217937 -40.93589226 11.63558285 -40.08875084 10.77363491 C-29.85933563 0.62352504 -14.40880192 -7.17705099 0 0 Z " fill="#D5C4A1" transform="translate(237.02174949645996,33.788880348205566)"/>
</svg>
